<svg xmlns="http://www.w3.org/2000/svg" enable-background="new 0 0 64 64" viewBox="0 0 64 64"><line x1="27.7" x2="36.3" fill="none" stroke="#0229d5" stroke-linecap="round" stroke-linejoin="round" stroke-miterlimit="10" stroke-width="2"/><line y1="36.3" y2="27.7" fill="none" stroke="#0229d5" stroke-linecap="round" stroke-linejoin="round" stroke-miterlimit="10" stroke-width="2"/><path fill="#acd2fe" d="M33,56.3C20.2,56.3,9.7,45.8,9.7,33S20.2,9.7,33,9.7c12.8,0,23.3,10.4,23.3,23.3S45.8,56.3,33,56.3z"/><path fill="#fff" d="M43.1 44.2c-2.6 0-4.7-2.1-4.7-4.7 0-2.6 2.1-4.7 4.7-4.7 2.6 0 4.7 2.1 4.7 4.7C47.7 42.1 45.6 44.2 43.1 44.2zM21 27.1c-1.6 0-2.8-1.3-2.8-2.8 0-1.6 1.3-2.8 2.8-2.8 1.6 0 2.8 1.3 2.8 2.8C23.8 25.8 22.6 27.1 21 27.1zM41.1 23.1c-1.1 0-2.1-1-2.1-2.1 0-1.2.9-2.1 2.1-2.1 1.1 0 2.1 1 2.1 2.1C43.2 22.1 42.3 23.1 41.1 23.1z"/><path fill="none" stroke="#0229d5" stroke-dasharray="0 3 37 3" stroke-linecap="round" stroke-linejoin="round" stroke-miterlimit="10" stroke-width="2" d="M56.3,32c0,13.4-10.9,24.3-24.3,24.3C18.6,56.3,7.7,45.4,7.7,32C7.7,18.6,18.6,7.7,32,7.7
				C45.4,7.7,56.3,18.6,56.3,32z"/><line x1="32" x2="32" y1="7.7" fill="none" stroke="#0229d5" stroke-linecap="round" stroke-linejoin="round" stroke-miterlimit="10" stroke-width="2"/><line x1="14.8" x2="9.4" y1="14.8" y2="9.4" fill="none" stroke="#0229d5" stroke-linecap="round" stroke-linejoin="round" stroke-miterlimit="10" stroke-width="2"/><line x1="6.3" x2="12.4" y1="12.4" y2="6.3" fill="none" stroke="#0229d5" stroke-linecap="round" stroke-linejoin="round" stroke-miterlimit="10" stroke-width="2"/><line x1="7.7" y1="32" y2="32" fill="none" stroke="#0229d5" stroke-linecap="round" stroke-linejoin="round" stroke-miterlimit="10" stroke-width="2"/><line x1="14.8" x2="9.4" y1="49.2" y2="54.6" fill="none" stroke="#0229d5" stroke-linecap="round" stroke-linejoin="round" stroke-miterlimit="10" stroke-width="2"/><line x1="12.4" x2="6.3" y1="57.7" y2="51.6" fill="none" stroke="#0229d5" stroke-linecap="round" stroke-linejoin="round" stroke-miterlimit="10" stroke-width="2"/><line x1="32" x2="32" y1="56.3" y2="64" fill="none" stroke="#0229d5" stroke-linecap="round" stroke-linejoin="round" stroke-miterlimit="10" stroke-width="2"/><line x1="36.3" x2="27.7" y1="64" y2="64" fill="none" stroke="#0229d5" stroke-linecap="round" stroke-linejoin="round" stroke-miterlimit="10" stroke-width="2"/><line x1="49.2" x2="54.6" y1="49.2" y2="54.6" fill="none" stroke="#0229d5" stroke-linecap="round" stroke-linejoin="round" stroke-miterlimit="10" stroke-width="2"/><line x1="57.7" x2="51.6" y1="51.6" y2="57.7" fill="none" stroke="#0229d5" stroke-linecap="round" stroke-linejoin="round" stroke-miterlimit="10" stroke-width="2"/><line x1="56.3" x2="64" y1="32" y2="32" fill="none" stroke="#0229d5" stroke-linecap="round" stroke-linejoin="round" stroke-miterlimit="10" stroke-width="2"/><line x1="64" x2="64" y1="27.7" y2="36.3" fill="none" stroke="#0229d5" stroke-linecap="round" stroke-linejoin="round" stroke-miterlimit="10" stroke-width="2"/><line x1="49.2" x2="54.6" y1="14.8" y2="9.4" fill="none" stroke="#0229d5" stroke-linecap="round" stroke-linejoin="round" stroke-miterlimit="10" stroke-width="2"/><line x1="51.6" x2="57.7" y1="6.3" y2="12.4" fill="none" stroke="#0229d5" stroke-linecap="round" stroke-linejoin="round" stroke-miterlimit="10" stroke-width="2"/><path fill="none" stroke="#0229d5" stroke-dasharray="17 3 107.997 4" stroke-linecap="round" stroke-linejoin="round" stroke-miterlimit="10" stroke-width="2" d="M47.7,38.5c0,3.1-2.5,5.7-5.7,5.7c-3.1,0-5.7-2.5-5.7-5.7s2.5-5.7,5.7-5.7C45.2,32.8,47.7,35.4,47.7,38.5z"/><path fill="none" stroke="#0229d5" stroke-linecap="round" stroke-linejoin="round" stroke-miterlimit="10" stroke-width="2" d="M23.8,23.2c0,2.1-1.7,3.8-3.8,3.8s-3.8-1.7-3.8-3.8c0-2.1,1.7-3.8,3.8-3.8S23.8,21.1,23.8,23.2z"/><ellipse cx="30" cy="28.8" fill="none" stroke="#0229d5" stroke-linecap="round" stroke-linejoin="round" stroke-miterlimit="10" stroke-width="2" rx="1" ry="1.1"/><path fill="none" stroke="#0229d5" stroke-linecap="round" stroke-linejoin="round" stroke-miterlimit="10" stroke-width="2" d="M43.2,20c0,1.7-1.4,3.1-3.1,3.1c-1.7,0-3.1-1.4-3.1-3.1c0-1.7,1.4-3.1,3.1-3.1C41.8,16.8,43.2,18.2,43.2,20z
				"/><circle cx="32" cy="48.2" r="1" fill="none" stroke="#0229d5" stroke-linecap="round" stroke-linejoin="round" stroke-miterlimit="10" stroke-width="2"/><path fill="#fff" d="M25.2,43.4c-1,0-1.9-0.8-1.9-1.9c0-1,0.8-1.9,1.9-1.9c1,0,1.9,0.8,1.9,1.9C27.1,42.6,26.3,43.4,25.2,43.4z"/><path fill="none" stroke="#0229d5" stroke-linecap="round" stroke-linejoin="round" stroke-miterlimit="10" stroke-width="2" d="M26.7,40.6c0,1.4-1.1,2.5-2.5,2.5c-1.4,0-2.5-1.1-2.5-2.5c0-1.4,1.1-2.5,2.5-2.5
				C25.6,38.1,26.7,39.2,26.7,40.6z"/></svg>